<mxfile host="65bd71144e">
    <diagram id="u5Zufpnckb5n7Qbu2Hc4" name="Page-1">
        <mxGraphModel dx="427" dy="667" grid="1" gridSize="10" guides="1" tooltips="1" connect="1" arrows="1" fold="1" page="0" pageScale="1" pageWidth="850" pageHeight="1100" background="#FFFFFF" math="0" shadow="0">
            <root>
                <mxCell id="0"/>
                <mxCell id="1" parent="0"/>
                <mxCell id="3" value="PRESENTACION&amp;nbsp;" style="rounded=1;whiteSpace=wrap;html=1;absoluteArcSize=1;arcSize=14;strokeWidth=2;" vertex="1" parent="1">
                    <mxGeometry x="250" y="70" width="120" height="60" as="geometry"/>
                </mxCell>
                <mxCell id="4" value="" style="strokeWidth=2;html=1;shape=mxgraph.flowchart.annotation_2;align=left;labelPosition=right;pointerEvents=1;rotation=90;gradientColor=none;fillColor=default;strokeColor=#000000;" vertex="1" parent="1">
                    <mxGeometry x="277.5" y="52.5" width="60" height="225" as="geometry"/>
                </mxCell>
                <mxCell id="5" value="A" style="rounded=1;whiteSpace=wrap;html=1;absoluteArcSize=1;arcSize=14;strokeWidth=2;" vertex="1" parent="1">
                    <mxGeometry x="138" y="190" width="120" height="60" as="geometry"/>
                </mxCell>
                <mxCell id="6" value="B" style="rounded=1;whiteSpace=wrap;html=1;absoluteArcSize=1;arcSize=14;strokeWidth=2;" vertex="1" parent="1">
                    <mxGeometry x="384" y="190" width="120" height="60" as="geometry"/>
                </mxCell>
                <mxCell id="13" style="edgeStyle=none;html=1;entryX=0.44;entryY=0;entryDx=0;entryDy=0;entryPerimeter=0;" edge="1" parent="1" source="9" target="12">
                    <mxGeometry relative="1" as="geometry"/>
                </mxCell>
                <mxCell id="23" style="edgeStyle=none;html=1;exitX=0;exitY=0.5;exitDx=0;exitDy=0;exitPerimeter=0;fontSize=9;" edge="1" parent="1" source="9" target="22">
                    <mxGeometry relative="1" as="geometry"/>
                </mxCell>
                <mxCell id="9" value="&lt;font style=&quot;font-size: 11px;&quot;&gt;Â¿ES ACTUALIZABLE?&lt;/font&gt;" style="strokeWidth=2;html=1;shape=mxgraph.flowchart.decision;whiteSpace=wrap;" vertex="1" parent="1">
                    <mxGeometry x="245" y="355" width="150" height="130" as="geometry"/>
                </mxCell>
                <mxCell id="20" style="edgeStyle=none;html=1;fontSize=9;" edge="1" parent="1" source="12" target="16">
                    <mxGeometry relative="1" as="geometry"/>
                </mxCell>
                <mxCell id="12" value="ELIMINACION&lt;br&gt;DATOS RELACIONADOS&lt;br&gt;AL DOCUMENTO&amp;nbsp;&lt;br&gt;PRESENTACION" style="rounded=1;whiteSpace=wrap;html=1;absoluteArcSize=1;arcSize=14;strokeWidth=2;" vertex="1" parent="1">
                    <mxGeometry x="252" y="580" width="154" height="100" as="geometry"/>
                </mxCell>
                <mxCell id="14" value="SI" style="text;html=1;strokeColor=none;fillColor=none;align=center;verticalAlign=middle;whiteSpace=wrap;rounded=0;" vertex="1" parent="1">
                    <mxGeometry x="302" y="490" width="60" height="30" as="geometry"/>
                </mxCell>
                <mxCell id="16" value="INSERCION&lt;br&gt;NUEVOS&amp;nbsp;&lt;br&gt;DATOS&amp;nbsp;" style="rounded=1;whiteSpace=wrap;html=1;absoluteArcSize=1;arcSize=14;strokeWidth=2;" vertex="1" parent="1">
                    <mxGeometry x="247" y="730" width="160" height="100" as="geometry"/>
                </mxCell>
                <mxCell id="17" value="&lt;font style=&quot;font-size: 9px;&quot;&gt;DELETE FROM TABLE&lt;br&gt;RELATION&lt;br&gt;&amp;nbsp;DOCUMENTO = DOC PRESENTACION&lt;/font&gt;" style="shape=ellipse;html=1;dashed=0;whitespace=wrap;perimeter=ellipsePerimeter;align=center;" vertex="1" parent="1">
                    <mxGeometry x="510" y="535" width="180" height="160" as="geometry"/>
                </mxCell>
                <mxCell id="22" value="END" style="html=1;dashed=0;whitespace=wrap;shape=mxgraph.dfd.start;fontSize=9;" vertex="1" parent="1">
                    <mxGeometry x="2" y="405" width="80" height="30" as="geometry"/>
                </mxCell>
                <mxCell id="24" value="NO" style="text;html=1;strokeColor=none;fillColor=none;align=center;verticalAlign=middle;whiteSpace=wrap;rounded=0;" vertex="1" parent="1">
                    <mxGeometry x="152" y="368" width="60" height="30" as="geometry"/>
                </mxCell>
                <mxCell id="27" value="" style="strokeWidth=2;html=1;shape=mxgraph.flowchart.database;whiteSpace=wrap;fontSize=11;" vertex="1" parent="1">
                    <mxGeometry x="442" y="600" width="40" height="30" as="geometry"/>
                </mxCell>
                <mxCell id="28" value="" style="strokeWidth=2;html=1;shape=mxgraph.flowchart.database;whiteSpace=wrap;fontSize=11;" vertex="1" parent="1">
                    <mxGeometry x="442" y="740" width="40" height="30" as="geometry"/>
                </mxCell>
                <mxCell id="33" value="" style="endArrow=classic;html=1;fontSize=11;strokeColor=#000000;" edge="1" parent="1">
                    <mxGeometry width="50" height="50" relative="1" as="geometry">
                        <mxPoint x="452" y="250" as="sourcePoint"/>
                        <mxPoint x="330" y="360" as="targetPoint"/>
                        <Array as="points">
                            <mxPoint x="330" y="250"/>
                            <mxPoint x="330" y="300"/>
                        </Array>
                    </mxGeometry>
                </mxCell>
                <mxCell id="34" value="" style="endArrow=classic;html=1;fontSize=11;exitX=0.75;exitY=1;exitDx=0;exitDy=0;strokeColor=#1A1A1A;" edge="1" parent="1" source="5">
                    <mxGeometry width="50" height="50" relative="1" as="geometry">
                        <mxPoint x="425" y="250" as="sourcePoint"/>
                        <mxPoint x="303" y="360" as="targetPoint"/>
                        <Array as="points">
                            <mxPoint x="303" y="250"/>
                            <mxPoint x="303" y="300"/>
                        </Array>
                    </mxGeometry>
                </mxCell>
            </root>
        </mxGraphModel>
    </diagram>
</mxfile>